<svg width="1440" height="1024" viewBox="0 0 1440 1024" fill="none" xmlns="http://www.w3.org/2000/svg">
<rect width="1440" height="1024" fill="#1E1E1E"/>
<rect width="1440" height="1024" fill="white"/>
<path d="M340.504 362.616C328.765 367.08 319.672 374.024 313.224 383.448C306.776 392.707 303.552 404.115 303.552 417.672C303.552 423.789 304.131 428.088 305.288 430.568C306.445 432.883 307.024 434.205 307.024 434.536C298.096 434.536 291.4 432.717 286.936 429.08C282.637 425.277 280.488 419.077 280.488 410.48C280.488 399.899 284.787 389.648 293.384 379.728C302.147 369.643 313.307 361.541 326.864 355.424C340.421 349.141 353.979 346 367.536 346C369.851 346 373.157 346.165 377.456 346.496L379.688 499.016L431.768 347.24H463.264L465.496 499.016L517.576 347.24H534.936L465.992 532H430.28L427.304 405.768L380.184 532H344.472L340.504 362.616ZM552.523 533.488C540.453 533.488 531.029 530.347 524.251 524.064C517.472 517.616 514.083 507.613 514.083 494.056C514.083 482.648 516.315 470.083 520.779 456.36C525.243 442.637 532.517 430.816 542.603 420.896C552.688 410.811 565.501 405.768 581.043 405.768C599.229 405.768 608.323 413.704 608.323 429.576C608.323 438.835 605.677 447.349 600.387 455.12C595.096 462.891 588.069 469.173 579.307 473.968C570.544 478.597 561.203 481.243 551.283 481.904C550.952 485.541 550.787 488.021 550.787 489.344C550.787 503.067 555.912 509.928 566.163 509.928C570.792 509.928 575.752 508.688 581.043 506.208C586.333 503.728 591.128 500.587 595.427 496.784C590.963 521.253 576.661 533.488 552.523 533.488ZM553.019 470C559.301 469.835 565.171 467.768 570.627 463.8C576.248 459.832 580.712 454.789 584.019 448.672C587.491 442.389 589.227 435.859 589.227 429.08C589.227 422.301 587.16 418.912 583.027 418.912C577.24 418.912 571.453 424.203 565.667 434.784C560.045 445.2 555.829 456.939 553.019 470ZM665.911 366.336C655.495 366.667 647.476 370.635 641.855 378.24C636.399 385.845 633.671 398.989 633.671 417.672C633.671 423.789 634.25 428.088 635.407 430.568C636.564 432.883 637.143 434.205 637.143 434.536C628.215 434.536 621.519 432.717 617.055 429.08C612.756 425.277 610.607 419.077 610.607 410.48C610.607 398.741 613.5 388.077 619.287 378.488C625.074 368.733 634.25 360.88 646.815 354.928C659.546 348.976 675.666 346 695.175 346C699.143 346 704.434 346.413 711.047 347.24C722.951 348.397 731.383 348.976 736.343 348.976C745.106 348.976 752.546 347.984 758.663 346C758.167 347.488 757.258 350.795 755.935 355.92C754.612 360.88 752.215 365.179 748.743 368.816C745.436 372.288 740.89 374.603 735.103 375.76C725.348 375.76 713.775 374.189 700.383 371.048L689.967 420.4H726.175L722.207 438.752H685.999L665.911 532H630.199L665.911 366.336ZM751.963 533.488C742.539 533.488 734.686 530.264 728.403 523.816C722.12 517.368 718.979 507.283 718.979 493.56C718.979 481.325 721.376 468.512 726.171 455.12C731.131 441.563 738.406 430.155 747.995 420.896C757.75 411.472 769.323 406.76 782.715 406.76C789.494 406.76 794.536 407.917 797.843 410.232C801.15 412.547 802.803 415.605 802.803 419.408V421.144L805.531 408H841.243L823.387 492.32C822.726 494.8 822.395 497.445 822.395 500.256C822.395 507.365 825.784 510.92 832.563 510.92C837.192 510.92 841.16 508.771 844.467 504.472C847.939 500.173 850.667 494.552 852.651 487.608H863.067C856.95 505.464 849.344 517.616 840.251 524.064C831.323 530.347 822.312 533.488 813.219 533.488C806.275 533.488 800.654 531.587 796.355 527.784C792.222 523.816 789.742 518.112 788.915 510.672C784.12 517.451 778.747 522.989 772.795 527.288C767.008 531.421 760.064 533.488 751.963 533.488ZM768.083 509.432C772.216 509.432 776.267 507.531 780.235 503.728C784.368 499.76 787.179 494.387 788.667 487.608L800.571 431.56C800.571 429.411 799.744 427.344 798.091 425.36C796.438 423.211 793.875 422.136 790.403 422.136C783.79 422.136 777.838 426.021 772.547 433.792C767.256 441.397 763.123 450.656 760.147 461.568C757.171 472.315 755.683 481.821 755.683 490.088C755.683 498.355 756.84 503.645 759.155 505.96C761.635 508.275 764.611 509.432 768.083 509.432ZM869.606 408H905.318L902.094 423.376C907.716 418.416 912.758 414.613 917.222 411.968C921.852 409.323 926.812 408 932.102 408C937.393 408 941.526 409.819 944.502 413.456C947.644 417.093 949.214 421.475 949.214 426.6C949.214 431.395 947.644 435.611 944.502 439.248C941.361 442.885 936.98 444.704 931.358 444.704C927.721 444.704 925.241 443.877 923.918 442.224C922.761 440.405 921.852 437.843 921.19 434.536C920.694 432.387 920.198 430.816 919.702 429.824C919.206 428.832 918.297 428.336 916.974 428.336C913.502 428.336 910.526 429.08 908.046 430.568C905.732 431.891 902.673 434.288 898.87 437.76L879.03 532H843.318L869.606 408ZM1092.55 533.488C1083.79 533.488 1077.42 530.843 1073.46 525.552C1069.49 520.261 1067.5 513.565 1067.5 505.464C1067.5 501.992 1067.92 498.107 1068.74 493.808C1069.57 489.344 1070.4 485.045 1071.22 480.912C1072.22 476.779 1072.88 474.133 1073.21 472.976C1074.53 467.189 1075.77 461.485 1076.93 455.864C1078.09 450.243 1078.66 445.696 1078.66 442.224C1078.66 433.792 1075.69 429.576 1069.74 429.576C1065.44 429.576 1061.64 431.725 1058.33 436.024C1055.02 440.157 1052.38 445.613 1050.39 452.392L1033.53 532H997.816L1015.92 446.44C1016.42 444.456 1016.66 442.389 1016.66 440.24C1016.66 432.965 1014.18 429.328 1009.22 429.328C1004.6 429.328 1000.54 431.477 997.072 435.776C993.766 439.909 991.12 445.448 989.136 452.392L972.272 532H936.56L962.848 408H998.56L995.832 420.896C1004.26 411.472 1014.35 406.76 1026.09 406.76C1040.64 406.76 1049.15 413.869 1051.63 428.088C1060.73 414.035 1072.22 407.008 1086.1 407.008C1094.54 407.008 1101.23 409.323 1106.19 413.952C1111.15 418.581 1113.63 425.608 1113.63 435.032C1113.63 439.827 1113.05 445.2 1111.9 451.152C1110.74 456.939 1109.09 464.048 1106.94 472.48C1105.61 477.605 1104.37 482.648 1103.22 487.608C1102.22 492.403 1101.73 496.205 1101.73 499.016C1101.73 502.323 1102.47 504.885 1103.96 506.704C1105.45 508.523 1108.01 509.432 1111.65 509.432C1115.62 509.432 1118.34 508.936 1119.83 507.944C1118.84 516.376 1115.78 522.741 1110.66 527.04C1105.7 531.339 1099.66 533.488 1092.55 533.488Z" fill="black"/>
<path d="M1160 588.5C1148.76 588.314 1137.59 588.147 1126.5 587.999M297 614.5C322.915 611.661 361.572 608.238 411.5 604.787M411.5 604.787C360 628 378.7 698.5 411.5 732.5C465.5 721.5 503.8 648.601 471 601.001M411.5 604.787C420.78 604.146 430.45 603.503 440.5 602.863C450.308 602.239 460.477 601.617 471 601.001M471 601.001C538.316 597.059 630.082 591.098 724 588.5M724 588.5C675 636 780 723 819.5 729C837 678.5 829.5 604.787 798 587.554M724 588.5C724 588.5 748.236 588.407 767 587.999C779.48 587.727 798 587.554 798 587.554M798 587.554C883.93 586.021 987.063 586.572 1088 587.554M1126.5 587.999C1142.33 616.666 1160.5 685 1106.5 729C1076.33 695.703 1030.4 620.797 1088 587.554M1126.5 587.999C1119.8 587.909 1113.14 587.826 1106.5 587.75C1100.31 587.679 1094.14 587.613 1088 587.554" stroke="black" stroke-width="26"/>
<path d="M440.5 606.5C433.333 634.5 452 644.5 423.5 689.5M756.5 591C757.833 615 781.7 666.3 798.5 679.5M1103.5 591C1101 620.167 1098 645 1109 684.5" stroke="black" stroke-width="7"/>
</svg>
