<svg width="866" height="174" viewBox="0 0 866 174" fill="none" xmlns="http://www.w3.org/2000/svg">
<path d="M865 15.5001C853.757 15.3139 842.59 15.147 831.5 14.9986M2 41.5001C27.9149 38.6612 66.5719 35.2381 116.5 31.787M116.5 31.787C65 55 83.7 125.5 116.5 159.5C170.5 148.5 208.8 75.601 176 28.0006M116.5 31.787C125.78 31.1455 135.45 30.5031 145.5 29.8632C155.308 29.2388 165.477 28.6168 176 28.0006M176 28.0006C243.316 24.0589 335.082 18.0983 429 15.5001M429 15.5001C380 63 485 150 524.5 156C542 105.5 534.5 31.787 503 14.5537M429 15.5001C429 15.5001 453.236 15.4073 472 14.9986C484.48 14.7267 503 14.5537 503 14.5537M503 14.5537C588.93 13.0211 692.063 13.5723 793 14.5537M831.5 14.9986C847.333 43.6658 865.5 112 811.5 156C781.333 122.703 735.4 47.7966 793 14.5537M831.5 14.9986C824.805 14.909 818.138 14.8261 811.5 14.7499C805.308 14.6788 799.142 14.6134 793 14.5537" stroke="black" stroke-width="26"/>
</svg>
